<svg id="insta" xmlns="http://www.w3.org/2000/svg" width="15.772" height="15.772" viewBox="0 0 15.772 15.772">
  <g id="instagram" transform="translate(0 0)">
    <g id="Group_1292" data-name="Group 1292">
      <g id="Group_1291" data-name="Group 1291">
        <path id="Path_4359" data-name="Path 4359" d="M10.843,0H4.929A4.929,4.929,0,0,0,0,4.929v5.915a4.929,4.929,0,0,0,4.929,4.929h5.915a4.929,4.929,0,0,0,4.929-4.929V4.929A4.929,4.929,0,0,0,10.843,0Zm3.45,10.843a3.454,3.454,0,0,1-3.45,3.45H4.929a3.454,3.454,0,0,1-3.45-3.45V4.929a3.454,3.454,0,0,1,3.45-3.45h5.915a3.454,3.454,0,0,1,3.45,3.45Z" fill="#fff"/>
      </g>
    </g>
    <g id="Group_1294" data-name="Group 1294" transform="translate(3.943 3.943)">
      <g id="Group_1293" data-name="Group 1293">
        <path id="Path_4360" data-name="Path 4360" d="M131.943,128a3.943,3.943,0,1,0,3.943,3.943A3.943,3.943,0,0,0,131.943,128Zm0,6.407a2.464,2.464,0,1,1,2.464-2.464A2.468,2.468,0,0,1,131.943,134.407Z" transform="translate(-128 -128)" fill="#fff"/>
      </g>
    </g>
    <g id="Group_1296" data-name="Group 1296" transform="translate(11.599 3.122)">
      <g id="Group_1295" data-name="Group 1295">
        <ellipse id="Ellipse_5" data-name="Ellipse 5" cx="0.525" cy="0.525" rx="0.525" ry="0.525" fill="#fff"/>
      </g>
    </g>
  </g>
</svg>
